<mxfile host="drawio-plugin" modified="2022-05-06T17:51:35.799Z" agent="5.0 (X11; Linux x86_64) AppleWebKit/537.36 (KHTML, like Gecko) Chrome/97.0.4692.45 Safari/537.36" etag="RVusXtrfUfeL2KALYlZW" version="15.5.4" type="embed"><diagram id="UjWuv3JrhT-Ci1nRG43G" name="Page-1"><mxGraphModel dx="1091" dy="716" grid="1" gridSize="10" guides="1" tooltips="1" connect="1" arrows="1" fold="1" page="1" pageScale="1" pageWidth="2800" pageHeight="1600" math="0" shadow="0"><root><mxCell id="0"/><mxCell id="1" parent="0"/><mxCell id="10" value="" style="ellipse;whiteSpace=wrap;html=1;aspect=fixed;fontSize=18;align=center;" parent="1" vertex="1"><mxGeometry x="210.25" y="482.5" width="455" height="455" as="geometry"/></mxCell><mxCell id="8" value="" style="ellipse;whiteSpace=wrap;html=1;aspect=fixed;fontSize=18;align=center;" parent="1" vertex="1"><mxGeometry x="260" y="528.75" width="362.5" height="362.5" as="geometry"/></mxCell><mxCell id="5" value="" style="ellipse;whiteSpace=wrap;html=1;aspect=fixed;fontSize=18;align=center;" parent="1" vertex="1"><mxGeometry x="305" y="575" width="270" height="270" as="geometry"/></mxCell><mxCell id="3" value="" style="ellipse;whiteSpace=wrap;html=1;aspect=fixed;fontSize=18;align=center;" parent="1" vertex="1"><mxGeometry x="350" y="620" width="180" height="180" as="geometry"/></mxCell><mxCell id="2" value="&lt;font style=&quot;font-size: 18px&quot;&gt;&lt;b&gt;Domain&lt;/b&gt;&lt;/font&gt;" style="ellipse;whiteSpace=wrap;html=1;aspect=fixed;" parent="1" vertex="1"><mxGeometry x="400" y="670" width="80" height="80" as="geometry"/></mxCell><mxCell id="4" value="&lt;b&gt;Application&lt;/b&gt;" style="rounded=0;whiteSpace=wrap;html=1;fontSize=18;align=center;strokeColor=none;" parent="1" vertex="1"><mxGeometry x="401.5" y="634" width="75" height="29" as="geometry"/></mxCell><mxCell id="7" value="&lt;b&gt;Infrastructure&lt;/b&gt;" style="rounded=0;whiteSpace=wrap;html=1;fontSize=18;align=center;strokeColor=none;" parent="1" vertex="1"><mxGeometry x="404.5" y="591" width="70.5" height="23" as="geometry"/></mxCell><mxCell id="9" value="&lt;b&gt;Controller&lt;/b&gt;" style="rounded=0;whiteSpace=wrap;html=1;fontSize=18;align=center;strokeColor=none;" parent="1" vertex="1"><mxGeometry x="406" y="540" width="70.5" height="31" as="geometry"/></mxCell><mxCell id="11" value="&lt;b&gt;Presentation&lt;/b&gt;" style="rounded=0;whiteSpace=wrap;html=1;fontSize=18;align=center;strokeColor=none;" parent="1" vertex="1"><mxGeometry x="405" y="494" width="70.5" height="31" as="geometry"/></mxCell><mxCell id="48" value="" style="rounded=1;whiteSpace=wrap;html=1;fontSize=15;align=center;fillColor=none;fontColor=#ffffff;strokeColor=#F00000;" parent="1" vertex="1"><mxGeometry x="20" y="50" width="800" height="310" as="geometry"/></mxCell><mxCell id="12" value="&lt;font style=&quot;font-size: 32px&quot;&gt;Parser&lt;/font&gt;" style="rounded=1;whiteSpace=wrap;html=1;fontSize=18;align=center;" parent="1" vertex="1"><mxGeometry x="585.5" y="160" width="190" height="110" as="geometry"/></mxCell><mxCell id="14" value="&lt;font style=&quot;font-size: 26px&quot;&gt;ViewGenerator&lt;/font&gt;" style="rounded=1;whiteSpace=wrap;html=1;fontSize=18;align=center;" parent="1" vertex="1"><mxGeometry x="40" y="160" width="190" height="110" as="geometry"/></mxCell><mxCell id="15" value="" style="endArrow=classic;html=1;rounded=0;fontSize=26;exitX=0.022;exitY=0.626;exitDx=0;exitDy=0;entryX=0.25;entryY=1;entryDx=0;entryDy=0;startArrow=none;exitPerimeter=0;" parent="1" source="5" target="14" edge="1"><mxGeometry width="50" height="50" relative="1" as="geometry"><mxPoint x="570" y="780" as="sourcePoint"/><mxPoint x="620" y="730" as="targetPoint"/><Array as="points"><mxPoint x="90" y="744"/></Array></mxGeometry></mxCell><mxCell id="16" value="" style="endArrow=classic;html=1;rounded=0;fontSize=26;entryX=0.5;entryY=1;entryDx=0;entryDy=0;" parent="1" source="5" target="12" edge="1"><mxGeometry width="50" height="50" relative="1" as="geometry"><mxPoint x="660" y="660" as="sourcePoint"/><mxPoint x="710" y="610" as="targetPoint"/><Array as="points"><mxPoint x="680" y="540"/></Array></mxGeometry></mxCell><mxCell id="17" value="BookController" style="rounded=0;whiteSpace=wrap;html=1;fontSize=15;align=center;strokeColor=none;rotation=-55;" parent="1" vertex="1"><mxGeometry x="279" y="600" width="75" height="30" as="geometry"/></mxCell><mxCell id="21" value="QML" style="rounded=0;whiteSpace=wrap;html=1;fontSize=15;align=center;strokeColor=none;rotation=35;" parent="1" vertex="1"><mxGeometry x="521" y="530" width="75" height="30" as="geometry"/></mxCell><mxCell id="22" value="AuthController" style="rounded=0;whiteSpace=wrap;html=1;fontSize=15;align=center;strokeColor=none;rotation=75;" parent="1" vertex="1"><mxGeometry x="554.5" y="661" width="75" height="30" as="geometry"/></mxCell><mxCell id="24" value="Services" style="rounded=0;whiteSpace=wrap;html=1;fontSize=15;align=center;strokeColor=none;rotation=90;" parent="1" vertex="1"><mxGeometry x="512.5" y="691" width="75" height="30" as="geometry"/></mxCell><mxCell id="25" value="Interfaces" style="rounded=0;whiteSpace=wrap;html=1;fontSize=15;align=center;strokeColor=none;rotation=90;" parent="1" vertex="1"><mxGeometry x="343" y="691" width="75" height="30" as="geometry"/></mxCell><mxCell id="26" value="App specific" style="rounded=0;whiteSpace=wrap;html=1;fontSize=15;align=center;strokeColor=none;rotation=90;" parent="1" vertex="1"><mxGeometry x="466" y="695" width="75" height="30" as="geometry"/></mxCell><mxCell id="47" value="Deps" style="rounded=0;whiteSpace=wrap;html=1;fontSize=15;align=center;strokeColor=none;rotation=90;" parent="1" vertex="1"><mxGeometry x="293" y="692" width="75" height="30" as="geometry"/></mxCell><mxCell id="51" value="&lt;font style=&quot;font-size: 26px&quot;&gt;&lt;b&gt;Application Dependencies&lt;/b&gt;&lt;/font&gt;" style="text;html=1;align=center;verticalAlign=middle;resizable=0;points=[];autosize=1;strokeColor=none;fillColor=none;fontSize=15;" parent="1" vertex="1"><mxGeometry x="266" y="70" width="340" height="30" as="geometry"/></mxCell><mxCell id="52" value="&lt;font color=&quot;#ffffff&quot; size=&quot;1&quot;&gt;&lt;b style=&quot;font-size: 28px&quot;&gt;&lt;br&gt;User&lt;/b&gt;&lt;/font&gt;" style="fontColor=#0066CC;verticalAlign=top;verticalLabelPosition=bottom;labelPosition=center;align=center;html=1;outlineConnect=0;fillColor=#CCCCCC;strokeColor=#6881B3;gradientColor=none;gradientDirection=north;strokeWidth=2;shape=mxgraph.networks.pc;fontSize=26;" parent="1" vertex="1"><mxGeometry x="323.5" y="1230" width="217.5" height="150" as="geometry"/></mxCell><mxCell id="53" value="" style="endArrow=classic;html=1;rounded=0;fontSize=28;fontColor=#FFFFFF;strokeWidth=2;" parent="1" edge="1"><mxGeometry width="50" height="50" relative="1" as="geometry"><mxPoint x="431" y="1230" as="sourcePoint"/><mxPoint x="431" y="940" as="targetPoint"/></mxGeometry></mxCell><mxCell id="54" value="&lt;b&gt;Presentation&lt;/b&gt;" style="rounded=0;whiteSpace=wrap;html=1;fontSize=18;align=center;strokeColor=none;" parent="1" vertex="1"><mxGeometry x="402.5" y="897" width="70.5" height="31" as="geometry"/></mxCell><mxCell id="55" value="&lt;b&gt;Application&lt;/b&gt;" style="rounded=0;whiteSpace=wrap;html=1;fontSize=18;align=center;strokeColor=none;" parent="1" vertex="1"><mxGeometry x="403.5" y="756" width="75" height="29" as="geometry"/></mxCell><mxCell id="56" value="&lt;b&gt;Infrastructure&lt;/b&gt;" style="rounded=0;whiteSpace=wrap;html=1;fontSize=18;align=center;strokeColor=none;" parent="1" vertex="1"><mxGeometry x="405.5" y="806" width="70.5" height="23" as="geometry"/></mxCell><mxCell id="71" value="" style="ellipse;whiteSpace=wrap;html=1;aspect=fixed;fontSize=18;align=center;" parent="1" vertex="1"><mxGeometry x="1305.5" y="627" width="270" height="270" as="geometry"/></mxCell><mxCell id="58" value="&lt;b&gt;Controller&lt;/b&gt;" style="rounded=0;whiteSpace=wrap;html=1;fontSize=18;align=center;strokeColor=none;" parent="1" vertex="1"><mxGeometry x="402.5" y="851" width="70.5" height="31" as="geometry"/></mxCell><mxCell id="68" value="" style="ellipse;whiteSpace=wrap;html=1;aspect=fixed;fontSize=18;align=center;" parent="1" vertex="1"><mxGeometry x="1350" y="671" width="180" height="180" as="geometry"/></mxCell><mxCell id="67" value="&lt;font style=&quot;font-size: 18px&quot;&gt;&lt;b&gt;Domain&lt;/b&gt;&lt;/font&gt;" style="ellipse;whiteSpace=wrap;html=1;aspect=fixed;" parent="1" vertex="1"><mxGeometry x="1400" y="720" width="80" height="80" as="geometry"/></mxCell><mxCell id="69" value="&lt;b&gt;Application&lt;/b&gt;" style="rounded=0;whiteSpace=wrap;html=1;fontSize=18;align=center;strokeColor=none;" parent="1" vertex="1"><mxGeometry x="1403" y="686" width="75" height="29" as="geometry"/></mxCell><mxCell id="72" value="&lt;b style=&quot;color: rgb(240, 240, 240); font-family: helvetica; font-size: 18px; font-style: normal; letter-spacing: normal; text-align: center; text-indent: 0px; text-transform: none; word-spacing: 0px; background-color: rgb(42, 42, 42);&quot;&gt;Infrastructure&lt;/b&gt;" style="text;whiteSpace=wrap;html=1;fontSize=18;fontColor=#FFFFFF;" parent="1" vertex="1"><mxGeometry x="1381" y="638" width="140" height="23" as="geometry"/></mxCell><mxCell id="74" value="" style="endArrow=none;html=1;rounded=0;fontSize=18;fontColor=#FFFFFF;strokeWidth=3;exitX=0.001;exitY=0.496;exitDx=0;exitDy=0;exitPerimeter=0;" parent="1" source="71" target="68" edge="1"><mxGeometry width="50" height="50" relative="1" as="geometry"><mxPoint x="1310" y="765" as="sourcePoint"/><mxPoint x="1360" y="715" as="targetPoint"/></mxGeometry></mxCell><mxCell id="75" value="" style="endArrow=none;html=1;rounded=0;fontSize=18;fontColor=#FFFFFF;strokeWidth=3;exitX=1;exitY=0.495;exitDx=0;exitDy=0;exitPerimeter=0;" parent="1" source="68" edge="1"><mxGeometry width="50" height="50" relative="1" as="geometry"><mxPoint x="1531" y="760" as="sourcePoint"/><mxPoint x="1575.5021961260056" y="759.8187271727726" as="targetPoint"/></mxGeometry></mxCell><mxCell id="76" value="&lt;b&gt;Presentation&lt;/b&gt;" style="rounded=0;whiteSpace=wrap;html=1;fontSize=18;align=center;strokeColor=none;" parent="1" vertex="1"><mxGeometry x="1409.5" y="853" width="70.5" height="31" as="geometry"/></mxCell><mxCell id="77" value="Controllers" style="rounded=0;whiteSpace=wrap;html=1;fontSize=18;fontColor=#FFFFFF;fillColor=default;gradientColor=none;align=center;" parent="1" vertex="1"><mxGeometry x="1280" y="928" width="100" height="30" as="geometry"/></mxCell><mxCell id="78" value="" style="endArrow=none;html=1;rounded=0;fontSize=18;fontColor=#FFFFFF;strokeWidth=1;exitX=1;exitY=0.5;exitDx=0;exitDy=0;entryX=0.497;entryY=1;entryDx=0;entryDy=0;entryPerimeter=0;" parent="1" source="77" target="71" edge="1"><mxGeometry width="50" height="50" relative="1" as="geometry"><mxPoint x="1390" y="990" as="sourcePoint"/><mxPoint x="1440" y="900" as="targetPoint"/><Array as="points"><mxPoint x="1440" y="943"/></Array></mxGeometry></mxCell><mxCell id="80" value="" style="endArrow=none;html=1;rounded=0;fontSize=18;fontColor=#FFFFFF;strokeWidth=1;entryX=0.54;entryY=1;entryDx=0;entryDy=0;entryPerimeter=0;" parent="1" target="77" edge="1"><mxGeometry width="50" height="50" relative="1" as="geometry"><mxPoint x="1250" y="1000" as="sourcePoint"/><mxPoint x="1260" y="930" as="targetPoint"/><Array as="points"><mxPoint x="1334" y="1000"/></Array></mxGeometry></mxCell><mxCell id="81" value="User" style="rounded=0;whiteSpace=wrap;html=1;fontSize=18;fontColor=#FFFFFF;fillColor=default;gradientColor=none;align=center;" parent="1" vertex="1"><mxGeometry x="1200" y="984" width="50" height="30" as="geometry"/></mxCell><mxCell id="83" value="" style="curved=1;endArrow=classic;html=1;rounded=0;fontSize=18;fontColor=#FFFFFF;strokeWidth=2;entryX=0;entryY=0.5;entryDx=0;entryDy=0;exitX=1;exitY=0.5;exitDx=0;exitDy=0;" parent="1" source="5" target="81" edge="1"><mxGeometry width="50" height="50" relative="1" as="geometry"><mxPoint x="950" y="980" as="sourcePoint"/><mxPoint x="1000" y="930" as="targetPoint"/><Array as="points"><mxPoint x="950" y="800"/><mxPoint x="890" y="1020"/></Array></mxGeometry></mxCell><mxCell id="132" value="&lt;font style=&quot;font-size: 32px&quot;&gt;Backend&lt;/font&gt;" style="edgeLabel;html=1;align=center;verticalAlign=middle;resizable=0;points=[];fontSize=110;fontColor=default;labelBackgroundColor=none;rotation=30;" vertex="1" connectable="0" parent="83"><mxGeometry x="-0.3908" y="-29" relative="1" as="geometry"><mxPoint x="38" y="-43" as="offset"/></mxGeometry></mxCell><mxCell id="86" value="" style="endArrow=classic;html=1;rounded=0;fontSize=18;fontColor=#FFFFFF;strokeWidth=1;exitX=0.06;exitY=0.263;exitDx=0;exitDy=0;exitPerimeter=0;entryX=0.474;entryY=1;entryDx=0;entryDy=0;entryPerimeter=0;" parent="1" source="71" edge="1" target="87"><mxGeometry width="50" height="50" relative="1" as="geometry"><mxPoint x="1350" y="660" as="sourcePoint"/><mxPoint x="1160" y="370" as="targetPoint"/><Array as="points"><mxPoint x="1160" y="520"/></Array></mxGeometry></mxCell><mxCell id="87" value="&lt;span style=&quot;font-size: 32px&quot;&gt;ASPNET&lt;/span&gt;" style="rounded=1;whiteSpace=wrap;html=1;fontSize=18;align=center;" parent="1" vertex="1"><mxGeometry x="1070" y="250" width="190" height="110" as="geometry"/></mxCell><mxCell id="88" value="&lt;span style=&quot;font-size: 32px&quot;&gt;Entity Framework&lt;/span&gt;" style="rounded=1;whiteSpace=wrap;html=1;fontSize=18;align=center;" parent="1" vertex="1"><mxGeometry x="1356" y="400" width="190" height="110" as="geometry"/></mxCell><mxCell id="90" value="" style="endArrow=classic;html=1;rounded=0;fontSize=18;fontColor=#FFFFFF;strokeWidth=1;exitX=0.535;exitY=0.001;exitDx=0;exitDy=0;exitPerimeter=0;" parent="1" source="71" edge="1"><mxGeometry width="50" height="50" relative="1" as="geometry"><mxPoint x="1450" y="620" as="sourcePoint"/><mxPoint x="1450" y="510" as="targetPoint"/></mxGeometry></mxCell><mxCell id="95" value="" style="aspect=fixed;perimeter=ellipsePerimeter;html=1;align=center;shadow=0;dashed=0;spacingTop=3;image;image=img/lib/active_directory/database_server.svg;fontSize=18;fontColor=#FFFFFF;fillColor=default;gradientColor=none;" parent="1" vertex="1"><mxGeometry x="2240" y="132" width="131.2" height="160" as="geometry"/></mxCell><mxCell id="97" value="" style="endArrow=classic;html=1;rounded=0;fontSize=18;fontColor=#FFFFFF;strokeWidth=2;exitX=0.011;exitY=0.876;exitDx=0;exitDy=0;exitPerimeter=0;" parent="1" source="95" edge="1"><mxGeometry width="50" height="50" relative="1" as="geometry"><mxPoint x="1850" y="450" as="sourcePoint"/><mxPoint x="2120" y="480" as="targetPoint"/><Array as="points"><mxPoint x="2241" y="293"/><mxPoint x="2120" y="293"/></Array></mxGeometry></mxCell><mxCell id="98" value="" style="endArrow=classic;html=1;rounded=0;fontSize=18;fontColor=#FFFFFF;strokeWidth=2;exitX=0.763;exitY=0.991;exitDx=0;exitDy=0;exitPerimeter=0;" parent="1" source="95" edge="1"><mxGeometry width="50" height="50" relative="1" as="geometry"><mxPoint x="2340" y="300" as="sourcePoint"/><mxPoint x="2680" y="480" as="targetPoint"/><Array as="points"><mxPoint x="2340" y="300"/><mxPoint x="2680" y="300"/></Array></mxGeometry></mxCell><mxCell id="100" value="AWS s3" style="outlineConnect=0;dashed=0;verticalLabelPosition=bottom;verticalAlign=top;align=center;html=1;shape=mxgraph.aws3.bucket;fillColor=#E05243;gradientColor=none;fontSize=18;fontColor=#FFFFFF;" parent="1" vertex="1"><mxGeometry x="2636" y="488.75" width="90" height="93" as="geometry"/></mxCell><mxCell id="101" value="&lt;font style=&quot;font-size: 18px&quot; color=&quot;#ffffff&quot;&gt;MySQL&lt;/font&gt;" style="sketch=0;outlineConnect=0;fontColor=#232F3E;gradientColor=none;fillColor=#527FFF;strokeColor=none;dashed=0;verticalLabelPosition=bottom;verticalAlign=top;align=center;html=1;fontSize=12;fontStyle=0;aspect=fixed;pointerEvents=1;shape=mxgraph.aws4.rds_mysql_instance;" parent="1" vertex="1"><mxGeometry x="2075" y="490" width="90.5" height="90.5" as="geometry"/></mxCell><mxCell id="102" value="Users" style="swimlane;fontStyle=0;childLayout=stackLayout;horizontal=1;startSize=30;horizontalStack=0;resizeParent=1;resizeParentMax=0;resizeLast=0;collapsible=1;marginBottom=0;fontSize=18;fontColor=#FFFFFF;fillColor=default;gradientColor=none;align=center;" parent="1" vertex="1"><mxGeometry x="2000" y="640" width="240" height="180" as="geometry"/></mxCell><mxCell id="103" value="Firstname : string" style="text;strokeColor=none;fillColor=none;align=left;verticalAlign=middle;spacingLeft=4;spacingRight=4;overflow=hidden;points=[[0,0.5],[1,0.5]];portConstraint=eastwest;rotatable=0;fontSize=18;fontColor=#FFFFFF;" parent="102" vertex="1"><mxGeometry y="30" width="240" height="30" as="geometry"/></mxCell><mxCell id="104" value="Lastname : string" style="text;strokeColor=none;fillColor=none;align=left;verticalAlign=middle;spacingLeft=4;spacingRight=4;overflow=hidden;points=[[0,0.5],[1,0.5]];portConstraint=eastwest;rotatable=0;fontSize=18;fontColor=#FFFFFF;" parent="102" vertex="1"><mxGeometry y="60" width="240" height="30" as="geometry"/></mxCell><mxCell id="105" value="Email : string" style="text;strokeColor=none;fillColor=none;align=left;verticalAlign=middle;spacingLeft=4;spacingRight=4;overflow=hidden;points=[[0,0.5],[1,0.5]];portConstraint=eastwest;rotatable=0;fontSize=18;fontColor=#FFFFFF;" parent="102" vertex="1"><mxGeometry y="90" width="240" height="30" as="geometry"/></mxCell><mxCell id="107" value="Age : int" style="text;strokeColor=none;fillColor=none;align=left;verticalAlign=middle;spacingLeft=4;spacingRight=4;overflow=hidden;points=[[0,0.5],[1,0.5]];portConstraint=eastwest;rotatable=0;fontSize=18;fontColor=#FFFFFF;" parent="102" vertex="1"><mxGeometry y="120" width="240" height="30" as="geometry"/></mxCell><mxCell id="106" value="AccountCreation : DateTime" style="text;strokeColor=none;fillColor=none;align=left;verticalAlign=middle;spacingLeft=4;spacingRight=4;overflow=hidden;points=[[0,0.5],[1,0.5]];portConstraint=eastwest;rotatable=0;fontSize=18;fontColor=#FFFFFF;" parent="102" vertex="1"><mxGeometry y="150" width="240" height="30" as="geometry"/></mxCell><mxCell id="108" value="Books" style="swimlane;fontStyle=0;childLayout=stackLayout;horizontal=1;startSize=30;horizontalStack=0;resizeParent=1;resizeParentMax=0;resizeLast=0;collapsible=1;marginBottom=0;fontSize=18;fontColor=#FFFFFF;fillColor=default;gradientColor=none;align=center;" parent="1" vertex="1"><mxGeometry x="2000" y="850" width="240" height="240" as="geometry"/></mxCell><mxCell id="109" value="Name : string" style="text;strokeColor=none;fillColor=none;align=left;verticalAlign=middle;spacingLeft=4;spacingRight=4;overflow=hidden;points=[[0,0.5],[1,0.5]];portConstraint=eastwest;rotatable=0;fontSize=18;fontColor=#FFFFFF;" parent="108" vertex="1"><mxGeometry y="30" width="240" height="30" as="geometry"/></mxCell><mxCell id="110" value="PublishingDate : DateTime" style="text;strokeColor=none;fillColor=none;align=left;verticalAlign=middle;spacingLeft=4;spacingRight=4;overflow=hidden;points=[[0,0.5],[1,0.5]];portConstraint=eastwest;rotatable=0;fontSize=18;fontColor=#FFFFFF;" parent="108" vertex="1"><mxGeometry y="60" width="240" height="30" as="geometry"/></mxCell><mxCell id="111" value="Pages : int" style="text;strokeColor=none;fillColor=none;align=left;verticalAlign=middle;spacingLeft=4;spacingRight=4;overflow=hidden;points=[[0,0.5],[1,0.5]];portConstraint=eastwest;rotatable=0;fontSize=18;fontColor=#FFFFFF;" parent="108" vertex="1"><mxGeometry y="90" width="240" height="30" as="geometry"/></mxCell><mxCell id="112" value="Format : string" style="text;strokeColor=none;fillColor=none;align=left;verticalAlign=middle;spacingLeft=4;spacingRight=4;overflow=hidden;points=[[0,0.5],[1,0.5]];portConstraint=eastwest;rotatable=0;fontSize=18;fontColor=#FFFFFF;" parent="108" vertex="1"><mxGeometry y="120" width="240" height="30" as="geometry"/></mxCell><mxCell id="114" value="DataLink : Link" style="text;strokeColor=none;fillColor=none;align=left;verticalAlign=middle;spacingLeft=4;spacingRight=4;overflow=hidden;points=[[0,0.5],[1,0.5]];portConstraint=eastwest;rotatable=0;fontSize=18;fontColor=#FFFFFF;" vertex="1" parent="108"><mxGeometry y="150" width="240" height="30" as="geometry"/></mxCell><mxCell id="113" value="Authors : Author" style="text;strokeColor=none;fillColor=none;align=left;verticalAlign=middle;spacingLeft=4;spacingRight=4;overflow=hidden;points=[[0,0.5],[1,0.5]];portConstraint=eastwest;rotatable=0;fontSize=18;fontColor=#FFFFFF;" parent="108" vertex="1"><mxGeometry y="180" width="240" height="30" as="geometry"/></mxCell><mxCell id="115" value="Users : User" style="text;strokeColor=none;fillColor=none;align=left;verticalAlign=middle;spacingLeft=4;spacingRight=4;overflow=hidden;points=[[0,0.5],[1,0.5]];portConstraint=eastwest;rotatable=0;fontSize=18;fontColor=#FFFFFF;" vertex="1" parent="108"><mxGeometry y="210" width="240" height="30" as="geometry"/></mxCell><mxCell id="117" value="Author" style="swimlane;fontStyle=0;childLayout=stackLayout;horizontal=1;startSize=30;horizontalStack=0;resizeParent=1;resizeParentMax=0;resizeLast=0;collapsible=1;marginBottom=0;fontSize=18;fontColor=#FFFFFF;fillColor=default;gradientColor=none;align=center;" vertex="1" parent="1"><mxGeometry x="2000" y="1130" width="240" height="90" as="geometry"/></mxCell><mxCell id="118" value="FirstName : string" style="text;strokeColor=none;fillColor=none;align=left;verticalAlign=middle;spacingLeft=4;spacingRight=4;overflow=hidden;points=[[0,0.5],[1,0.5]];portConstraint=eastwest;rotatable=0;fontSize=18;fontColor=#FFFFFF;" vertex="1" parent="117"><mxGeometry y="30" width="240" height="30" as="geometry"/></mxCell><mxCell id="119" value="LastName : string" style="text;strokeColor=none;fillColor=none;align=left;verticalAlign=middle;spacingLeft=4;spacingRight=4;overflow=hidden;points=[[0,0.5],[1,0.5]];portConstraint=eastwest;rotatable=0;fontSize=18;fontColor=#FFFFFF;" vertex="1" parent="117"><mxGeometry y="60" width="240" height="30" as="geometry"/></mxCell><mxCell id="125" value="&lt;font style=&quot;font-size: 18px&quot;&gt;BookData&lt;/font&gt;" style="shape=datastore;whiteSpace=wrap;html=1;" vertex="1" parent="1"><mxGeometry x="2631" y="640" width="104" height="120" as="geometry"/></mxCell><mxCell id="127" value="&lt;font style=&quot;font-size: 110px&quot;&gt;Librum&lt;/font&gt;" style="rounded=0;whiteSpace=wrap;html=1;fontSize=100;" vertex="1" parent="1"><mxGeometry x="1160.75" y="1390" width="559.25" height="162" as="geometry"/></mxCell><mxCell id="128" value="Services" style="rounded=0;whiteSpace=wrap;html=1;fontSize=18;fontColor=#FFFFFF;fillColor=default;gradientColor=none;align=center;" vertex="1" parent="1"><mxGeometry x="1641" y="690" width="100" height="30" as="geometry"/></mxCell><mxCell id="129" value="" style="endArrow=classic;html=1;rounded=0;fontSize=110;" edge="1" parent="1"><mxGeometry width="50" height="50" relative="1" as="geometry"><mxPoint x="1563" y="705" as="sourcePoint"/><mxPoint x="1640" y="705" as="targetPoint"/></mxGeometry></mxCell><mxCell id="130" value="" style="endArrow=classic;html=1;rounded=0;fontSize=110;entryX=0;entryY=0.5;entryDx=0;entryDy=0;exitX=0.5;exitY=0;exitDx=0;exitDy=0;strokeWidth=3;" edge="1" parent="1" source="128" target="95"><mxGeometry width="50" height="50" relative="1" as="geometry"><mxPoint x="1690" y="680" as="sourcePoint"/><mxPoint x="1730" y="720" as="targetPoint"/><Array as="points"><mxPoint x="1691" y="212"/></Array></mxGeometry></mxCell></root></mxGraphModel></diagram></mxfile>